<svg width="100" height="100" viewBox="0 0 100 100" xmlns="http://www.w3.org/2000/svg">
  <rect width="100" height="100" fill="#eef2ff" />
  <circle cx="50" cy="50" r="35" fill="#fcd34d" />
  <path d="M50 20 A30 30 0 0 1 80 50 A30 30 0 0 1 50 80 A30 30 0 0 1 20 50 A30 30 0 0 1 50 20 Z" fill="#f59e0b" />
  <path d="M50 30 A20 20 0 0 1 70 50 A20 20 0 0 1 50 70 A20 20 0 0 1 30 50 A20 20 0 0 1 50 30 Z" fill="#eef2ff" stroke="#f59e0b" stroke-width="2" />
  <polygon points="50,40 55,45 50,60 45,45" fill="#f59e0b" />
  <text x="50" y="85" text-anchor="middle" dominant-baseline="middle" font-family="Arial" font-weight="bold" font-size="6" fill="#f59e0b">Bulletproofs</text>
</svg>