<svg width="100" height="100" viewBox="0 0 100 100" xmlns="http://www.w3.org/2000/svg">
  <rect width="100" height="100" fill="#eef2ff" />
  <circle cx="50" cy="50" r="35" fill="#a78bfa" />
  
  <!-- FF Letters -->
  <path d="M40 30 L60 30 L60 35 L45 35 L45 45 L55 45 L55 50 L45 50 L45 70" stroke="#eef2ff" stroke-width="3" fill="none" />
  <path d="M65 30 L85 30 L85 35 L70 35 L70 45 L80 45 L80 50 L70 50 L70 70" stroke="#eef2ff" stroke-width="3" fill="none" />
  
  <!-- PLONK-like Symbol -->
  <circle cx="30" cy="50" r="5" fill="#eef2ff" />
  <circle cx="20" cy="40" r="5" fill="#eef2ff" />
  <circle cx="20" cy="60" r="5" fill="#eef2ff" />
  <path d="M25 40 L30 45" stroke="#eef2ff" stroke-width="1" />
  <path d="M25 60 L30 55" stroke="#eef2ff" stroke-width="1" />
  
  <text x="50" y="85" text-anchor="middle" dominant-baseline="middle" font-family="Arial" font-weight="bold" font-size="6" fill="#8b5cf6">FFLONK</text>
</svg>
