<svg width="100" height="100" viewBox="0 0 100 100" xmlns="http://www.w3.org/2000/svg">
  <rect width="100" height="100" fill="#eef2ff" />
  <circle cx="50" cy="50" r="35" fill="#fde68a" />
  
  <!-- Mobile Phone Outline -->
  <rect x="35" y="25" width="30" height="50" rx="5" fill="#eab308" />
  <rect x="38" y="30" width="24" height="35" fill="#eef2ff" />
  <circle cx="50" cy="70" r="3" fill="#eef2ff" />
  
  <!-- Fingerprint on Screen -->
  <path d="M45 45 Q50 37, 55 45" stroke="#eab308" stroke-width="1.5" fill="none" />
  <path d="M42 45 Q50 32, 58 45" stroke="#eab308" stroke-width="1.5" fill="none" />
  <path d="M40 45 Q50 27, 60 45" stroke="#eab308" stroke-width="1.5" fill="none" />
  <path d="M43 55 Q50 63, 57 55" stroke="#eab308" stroke-width="1.5" fill="none" />
  <path d="M46 55 Q50 68, 54 55" stroke="#eab308" stroke-width="1.5" fill="none" />
  
  <!-- Privacy Shield -->
  <path d="M70 60 A20 20 0 0 0 65 40" stroke="#eef2ff" stroke-width="2" fill="none" stroke-dasharray="4 2" />
  <circle cx="70" cy="60" r="5" fill="#eef2ff" />
  <path d="M68 58 L70 60 L73 57" stroke="#eab308" stroke-width="1.5" fill="none" />
  
  <text x="50" y="85" text-anchor="middle" dominant-baseline="middle" font-family="Arial" font-weight="bold" font-size="6" fill="#eab308">MoPro</text>
</svg>