<svg width="100" height="100" viewBox="0 0 100 100" xmlns="http://www.w3.org/2000/svg">
  <rect width="100" height="100" fill="#eef2ff" />
  <circle cx="50" cy="50" r="35" fill="#fca5a5" />
  <path d="M30 40 L70 40 L70 60 L30 60 Z" fill="#ef4444" />
  
  <!-- Transaction Arrow -->
  <path d="M35 50 L65 50" stroke="#eef2ff" stroke-width="4" stroke-linecap="round"/>
  <path d="M60 45 L65 50 L60 55" stroke="#eef2ff" stroke-width="4" stroke-linecap="round" fill="none"/>
  
  <!-- Mask Icon -->
  <circle cx="35" cy="35" r="8" fill="#eef2ff" />
  <circle cx="65" cy="65" r="8" fill="#eef2ff" />
  <path d="M35 32 C38 32 38 38 35 38 C32 38 32 32 35 32" fill="#ef4444" />
  <path d="M65 62 C68 62 68 68 65 68 C62 68 62 62 65 62" fill="#ef4444" />
  
  <text x="50" y="85" text-anchor="middle" dominant-baseline="middle" font-family="Arial" font-weight="bold" font-size="6" fill="#ef4444">Private Transactions</text>
</svg>
