<svg width="100" height="100" viewBox="0 0 100 100" xmlns="http://www.w3.org/2000/svg">
  <rect width="100" height="100" fill="#eef2ff" />
  <circle cx="50" cy="50" r="35" fill="#fecaca" />
  <path d="M35 30 C35 30 65 30 65 30 C70 30 75 35 75 40 C75 65 75 65 75 65 C75 70 70 75 65 75 C40 75 40 75 40 75 C35 75 30 70 30 65 C30 40 30 40 30 40 C30 35 35 30 40 30" fill="#ef4444" />
  <path d="M40 35 C40 35 60 35 60 35 C65 35 70 40 70 45 C70 60 70 60 70 60 C70 65 65 70 60 70 C45 70 45 70 45 70 C40 70 35 65 35 60 C35 45 35 45 35 45 C35 40 40 35 45 35" fill="#eef2ff" />
  <path d="M45 45 L60 45 M45 55 L60 55 M45 65 L55 65" stroke="#ef4444" stroke-width="2" />
  <text x="50" y="80" text-anchor="middle" dominant-baseline="middle" font-family="Arial" font-weight="bold" font-size="6" fill="#ef4444">Scroll</text>
</svg>