<svg width="100" height="100" viewBox="0 0 100 100" xmlns="http://www.w3.org/2000/svg">
  <rect width="100" height="100" fill="#eef2ff" />
  <circle cx="50" cy="50" r="35" fill="#fca5a5" />
  
  <!-- Shield -->
  <path d="M50 25 L70 35 L70 55 C70 65 60 75 50 80 C40 75 30 65 30 55 L30 35 Z" fill="#ef4444" />
  <path d="M50 35 L62 42 L62 55 C62 61 56 68 50 71 C44 68 38 61 38 55 L38 42 Z" fill="#eef2ff" />
  
  <!-- Multiple Faces -->
  <circle cx="35" cy="45" r="7" fill="none" stroke="#eef2ff" stroke-width="1.5" />
  <circle cx="35" cy="45" r="2" fill="#ef4444" />
  <path d="M30 50 C32 52, 38 52, 40 50" stroke="#ef4444" stroke-width="1" fill="none" />
  
  <circle cx="65" cy="45" r="7" fill="none" stroke="#eef2ff" stroke-width="1.5" />
  <circle cx="65" cy="45" r="2" fill="#ef4444" />
  <path d="M60 50 C62 52, 68 52, 70 50" stroke="#ef4444" stroke-width="1" fill="none" />
  
  <!-- Crossed Out -->
  <path d="M36 36 L64 64" stroke="#ef4444" stroke-width="3" />
  <path d="M64 36 L36 64" stroke="#ef4444" stroke-width="3" />
  
  <text x="50" y="85" text-anchor="middle" dominant-baseline="middle" font-family="Arial" font-weight="bold" font-size="6" fill="#ef4444">Sybil Resistance</text>
</svg>
