<svg width="100" height="100" viewBox="0 0 100 100" xmlns="http://www.w3.org/2000/svg">
  <rect width="100" height="100" fill="#eef2ff" />
  <circle cx="50" cy="50" r="35" fill="#fca5a5" />
  <path d="M50 20 C70 20 70 40 50 40 C30 40 30 20 50 20" fill="#dc2626" />
  <path d="M50 40 C70 40 70 60 50 60 C30 60 30 40 50 40" fill="#dc2626" />
  <path d="M50 60 C70 60 70 80 50 80 C30 80 30 60 50 60" fill="#dc2626" />
  <circle cx="50" cy="30" r="5" fill="#eef2ff" />
  <circle cx="50" cy="50" r="5" fill="#eef2ff" />
  <circle cx="50" cy="70" r="5" fill="#eef2ff" />
  <text x="50" y="90" text-anchor="middle" dominant-baseline="middle" font-family="Arial" font-weight="bold" font-size="6" fill="#dc2626">Tornado Cash</text>
</svg>