<svg width="100" height="100" viewBox="0 0 100 100" xmlns="http://www.w3.org/2000/svg">
  <rect width="100" height="100" fill="#eef2ff" />
  <circle cx="50" cy="50" r="35" fill="#cbd5e1" />
  
  <!-- Email Envelope -->
  <rect x="25" y="35" width="50" height="30" rx="2" fill="#64748b" />
  <path d="M25 35 L50 50 L75 35" fill="#94a3b8" />
  <path d="M25 65 L45 50 M55 50 L75 65" stroke="#94a3b8" stroke-width="2" fill="none" />
  
  <!-- Lock Symbol -->
  <circle cx="50" cy="50" r="10" fill="#eef2ff" />
  <rect x="46" y="48" width="8" height="8" rx="1" fill="#64748b" />
  <circle cx="50" cy="50" r="1.5" fill="#eef2ff" />
  <rect x="49" y="50" width="2" height="3" fill="#eef2ff" />
  
  <!-- ZK Symbol -->
  <path d="M35 30 L38 30 L35 33 L38 33" stroke="#eef2ff" stroke-width="1" fill="none" />
  <path d="M39 30 L39 33" stroke="#eef2ff" stroke-width="1" />
  <path d="M65 30 L68 30 L65 33 L68 33" stroke="#eef2ff" stroke-width="1" fill="none" />
  <path d="M69 30 L69 33" stroke="#eef2ff" stroke-width="1" />
  
  <text x="50" y="85" text-anchor="middle" dominant-baseline="middle" font-family="Arial" font-weight="bold" font-size="6" fill="#64748b">ZKEmail</text>
</svg>