<svg width="100" height="100" viewBox="0 0 100 100" xmlns="http://www.w3.org/2000/svg">
  <rect width="100" height="100" fill="#eef2ff" />
  <circle cx="50" cy="50" r="35" fill="#bae6fd" />
  
  <!-- Bridge/Port Structure -->
  <path d="M20 55 L40 55 L40 45 L60 45 L60 55 L80 55" stroke="#0ea5e9" stroke-width="5" fill="none" />
  <rect x="35" y="30" width="10" height="25" fill="#0ea5e9" />
  <rect x="55" y="30" width="10" height="15" fill="#0ea5e9" />
  
  <!-- Water -->
  <path d="M20 60 C25 57, 30 63, 35 60 C40 57, 45 63, 50 60 C55 57, 60 63, 65 60 C70 57, 75 63, 80 60" stroke="#bae6fd" stroke-width="2" fill="none" />
  <path d="M20 65 C25 62, 30 68, 35 65 C40 62, 45 68, 50 65 C55 62, 60 68, 65 65 C70 62, 75 68, 80 65" stroke="#bae6fd" stroke-width="2" fill="none" />
  
  <!-- ZK Symbol -->
  <path d="M35 20 L41 20 L35 26 L41 26" stroke="#eef2ff" stroke-width="1.5" fill="none" />
  <path d="M43 20 L43 26" stroke="#eef2ff" stroke-width="1.5" />
  
  <text x="50" y="85" text-anchor="middle" dominant-baseline="middle" font-family="Arial" font-weight="bold" font-size="6" fill="#0ea5e9">ZK Porter</text>
</svg>
