<svg xmlns="http://www.w3.org/2000/svg" width="400" height="200" viewBox="0 0 400 200">
  <rect width="400" height="200" fill="#f8fafc" rx="10" ry="10" />
  
  <!-- Card 1 -->
  <g transform="translate(80, 100) rotate(-10)">
    <rect x="-35" y="-50" width="70" height="100" rx="5" ry="5" fill="white" stroke="#4f46e5" stroke-width="2" />
    <rect x="-30" y="-45" width="60" height="15" rx="2" ry="2" fill="#4f46e5" />
    <rect x="-25" y="-25" width="50" height="30" rx="2" ry="2" fill="#e0e7ff" />
    <rect x="-25" y="10" width="50" height="5" rx="1" ry="1" fill="#cbd5e1" />
    <rect x="-25" y="20" width="50" height="5" rx="1" ry="1" fill="#cbd5e1" />
    <rect x="-25" y="30" width="30" height="5" rx="1" ry="1" fill="#cbd5e1" />
  </g>
  
  <!-- Card 2 -->
  <g transform="translate(200, 100)">
    <rect x="-35" y="-50" width="70" height="100" rx="5" ry="5" fill="white" stroke="#10b981" stroke-width="2" />
    <rect x="-30" y="-45" width="60" height="15" rx="2" ry="2" fill="#10b981" />
    <rect x="-25" y="-25" width="50" height="30" rx="2" ry="2" fill="#d1fae5" />
    <rect x="-25" y="10" width="50" height="5" rx="1" ry="1" fill="#cbd5e1" />
    <rect x="-25" y="20" width="50" height="5" rx="1" ry="1" fill="#cbd5e1" />
    <rect x="-25" y="30" width="30" height="5" rx="1" ry="1" fill="#cbd5e1" />
  </g>
  
  <!-- Card 3 -->
  <g transform="translate(320, 100) rotate(10)">
    <rect x="-35" y="-50" width="70" height="100" rx="5" ry="5" fill="white" stroke="#f97316" stroke-width="2" />
    <rect x="-30" y="-45" width="60" height="15" rx="2" ry="2" fill="#f97316" />
    <rect x="-25" y="-25" width="50" height="30" rx="2" ry="2" fill="#ffedd5" />
    <rect x="-25" y="10" width="50" height="5" rx="1" ry="1" fill="#cbd5e1" />
    <rect x="-25" y="20" width="50" height="5" rx="1" ry="1" fill="#cbd5e1" />
    <rect x="-25" y="30" width="30" height="5" rx="1" ry="1" fill="#cbd5e1" />
  </g>
  
  <text x="200" y="180" font-family="Arial" font-size="16" fill="#0f172a" text-anchor="middle">Use your ZK technology cards</text>
</svg>